# xmcd
#
# Track frame offsets:
# 150
# 17648
# 40224
# 51086
# 67757
# 92014
# 104708
# 127153
# 148444
# 170691
# 188924
# 230473
# 249197
# 265053
# 298183
#
# Disc length: 4688 seconds
#
#
# Revision: 0
# Processed by: cddbd v1.5.1PL0 Copyright (c) Steve Scherf et al.
# Submitted via: FreeRIP 2.53 
#
DISCID=df124e0f
DTITLE=Stevie Ray Vaughan and Double Trouble - The Essential [CD1]
DYEAR=2002
DGENRE=Blues
TTITLE0=Shake For Me (Live)
TTITLE1=Rude Mood/Hide Away (Live)
TTITLE2=Love Struck Baby
TTITLE3=Pride And Joy
TTITLE4=Texas Flood
TTITLE5=Mary Had A Little Lamb
TTITLE6=Lenny
TTITLE7=Couldn't Stand The Weather
TTITLE8=The Things (That) I Used To Do
TTITLE9=Cold Shot
TTITLE10=Tin Pan Alley (Aka Roughest Place In Town)
TTITLE11=Give Me Back My Wig
TTITLE12=Empty Arms
TTITLE13=The Sky Is Crying (Live)
TTITLE14=Voodoo Child (Slight Return) (Live)
EXTD=
EXTT0=
EXTT1=
EXTT2=
EXTT3=
EXTT4=
EXTT5=
EXTT6=
EXTT7=
EXTT8=
EXTT9=
EXTT10=
EXTT11=
EXTT12=
EXTT13=
EXTT14=
PLAYORDER=
